<svg width="31" height="34" viewBox="0 0 31 34" fill="none" xmlns="http://www.w3.org/2000/svg">
<path d="M21.7686 17.3303C21.7686 15.4054 22.6728 14.0006 24.4281 12.908C23.4174 11.5033 21.9281 10.775 19.96 10.6189C18.0451 10.4628 15.9706 11.6594 15.226 11.6594C14.4281 11.6594 12.6196 10.6709 11.1834 10.6709C8.2047 10.7229 5.06641 12.9601 5.06641 17.5905C5.06641 18.9431 5.27917 20.3479 5.81109 21.8046C6.50257 23.7296 8.94938 28.412 11.5026 28.3079C12.8324 28.3079 13.7898 27.3714 15.5451 27.3714C17.2473 27.3714 18.0983 28.3079 19.5877 28.3079C22.1941 28.3079 24.4281 24.0417 25.0664 22.1167C21.609 20.5039 21.7686 17.4344 21.7686 17.3303ZM18.7898 8.79794C20.226 7.13309 20.0664 5.57229 20.0664 5C18.7898 5.10405 17.3005 5.88445 16.4494 6.82093C15.4919 7.86147 14.96 9.16213 15.0664 10.5668C16.4494 10.6709 17.726 9.99456 18.7898 8.79794Z" fill="white"/>
</svg>
