<svg width="122" height="23" viewBox="0 0 122 23" fill="none" xmlns="http://www.w3.org/2000/svg">
<path d="M20.8198 0.773944C21.0296 0.744027 21.2438 0.761791 21.4454 0.82584C21.647 0.889888 21.8305 0.998475 21.9817 1.14307C22.1328 1.28766 22.2473 1.46431 22.3162 1.65915C22.385 1.85398 22.4065 2.06169 22.3788 2.26593V4.11314C22.3712 4.32411 22.3181 4.53117 22.2228 4.72089C22.1275 4.91061 21.9922 5.07874 21.8256 5.21436L3.20418 19.255C3.18859 19.2674 3.17601 19.2828 3.16732 19.3005C3.15862 19.3182 3.15404 19.3375 3.15389 19.3571V19.3793C3.15389 19.3957 3.16064 19.4115 3.17264 19.4232C3.18465 19.4349 3.20092 19.4414 3.21791 19.4414H21.9947C22.0958 19.4437 22.1922 19.4837 22.2637 19.5532C22.3353 19.6226 22.3765 19.7162 22.3788 19.8145V21.7193C22.3753 21.8168 22.3336 21.9093 22.2622 21.9778C22.1908 22.0463 22.0951 22.0857 21.9947 22.0879H1.95605C1.74934 22.1102 1.54013 22.0872 1.34373 22.0207C1.14734 21.9542 0.968747 21.8459 0.821032 21.7037C0.673316 21.5615 0.56022 21.389 0.490026 21.1989C0.419832 21.0088 0.394319 20.8058 0.415354 20.6048V18.7976C0.422907 18.5866 0.476062 18.3796 0.571369 18.1898C0.666675 18.0001 0.802 17.832 0.968559 17.6964L19.59 3.63801C19.6055 3.62653 19.6181 3.61175 19.6268 3.59481C19.6354 3.57789 19.6401 3.55925 19.6403 3.54032V3.49592C19.6403 3.47943 19.6335 3.46362 19.6216 3.45196C19.6095 3.4403 19.5933 3.43376 19.5763 3.43376H0.799351C0.698236 3.43148 0.601911 3.39145 0.530398 3.32198C0.458885 3.25253 0.417682 3.15896 0.415354 3.06076V1.1425C0.418831 1.04507 0.46054 0.952624 0.531935 0.8841C0.60333 0.815576 0.699003 0.776166 0.799351 0.773944H20.8198ZM79.9987 0.773944C81.1209 0.697003 82.2473 0.84885 83.3055 1.21973C84.3637 1.59062 85.3303 2.17234 86.1433 2.92755C86.9198 3.71798 87.5179 4.65695 87.8997 5.6845C88.2815 6.71207 88.4385 7.80565 88.3607 8.89546C88.379 10.5739 88.379 12.319 88.3653 13.9664C88.4413 15.0561 88.2834 16.1492 87.9017 17.1765C87.52 18.2037 86.9228 19.1429 86.1479 19.9343C85.334 20.6884 84.3673 21.2693 83.3093 21.6401C82.2513 22.011 81.1253 22.1634 80.0032 22.0879H74.7685C73.6465 22.1679 72.5195 22.0189 71.4605 21.6502C70.4014 21.2816 69.4335 20.7017 68.6192 19.9476C67.8422 19.1574 67.2434 18.2186 66.8609 17.191C66.4783 16.1635 66.3204 15.0698 66.3972 13.9798V8.89546C66.3233 7.80561 66.4825 6.7127 66.865 5.68558C67.2473 4.65847 67.8446 3.7194 68.6192 2.92755C69.433 2.1735 70.3998 1.59253 71.4577 1.22172C72.5157 0.850914 73.6417 0.69841 74.7638 0.773944H79.9987ZM47.0077 0.773944C48.1292 0.697397 49.2548 0.849443 50.3122 1.22032C51.3695 1.5912 52.3355 2.17272 53.1478 2.92755C53.9256 3.71718 54.525 4.65591 54.9077 5.6836C55.2903 6.71128 55.4477 7.80527 55.3698 8.89546C55.3835 10.5739 55.3835 12.319 55.3698 13.9664C55.4426 15.0562 55.2829 16.1488 54.9005 17.1758C54.5181 18.2027 53.9214 19.1419 53.1478 19.9343C52.3351 20.6886 51.3691 21.2696 50.3118 21.6405C49.2545 22.0114 48.1291 22.1637 47.0077 22.0879H41.7729C40.6516 22.1675 39.5255 22.0183 38.4672 21.6496C37.4089 21.281 36.4418 20.7013 35.6283 19.9476C34.8504 19.158 34.251 18.2193 33.8684 17.1915C33.4857 16.1639 33.3283 15.0699 33.4063 13.9798V8.89546C33.3323 7.80561 33.4916 6.7127 33.8739 5.68558C34.2564 4.65847 34.8537 3.7194 35.6283 2.92755C36.4418 2.17322 37.4086 1.59206 38.4667 1.22123C39.5247 0.850404 40.6508 0.698062 41.7729 0.773944H47.0077ZM102.003 0.747309C102.215 0.754684 102.415 0.842364 102.561 0.991527C105.142 3.80675 107.724 6.619 110.306 9.42831C110.324 9.44487 110.347 9.4541 110.372 9.4541C110.397 9.4541 110.42 9.44487 110.439 9.42831L118.183 0.991527C118.33 0.843141 118.53 0.755611 118.741 0.747309H121.246C121.309 0.74176 121.372 0.755374 121.426 0.786245C121.481 0.817116 121.524 0.863701 121.55 0.919481C121.576 0.975262 121.582 1.03745 121.569 1.09734C121.557 1.15723 121.526 1.21184 121.48 1.25351L112.19 11.3821C112.176 11.3978 112.169 11.4174 112.169 11.4376C112.169 11.4578 112.176 11.4773 112.19 11.4931L121.434 21.5729C121.48 21.6142 121.511 21.6684 121.523 21.7278C121.535 21.7873 121.529 21.8489 121.505 21.9045C121.479 21.96 121.437 22.0067 121.383 22.0379C121.33 22.0691 121.268 22.0835 121.205 22.079H118.7C118.488 22.0721 118.288 21.9844 118.142 21.8348C115.573 19.0433 113.001 16.2428 110.43 13.4336C110.411 13.417 110.388 13.4078 110.363 13.4078C110.338 13.4078 110.315 13.417 110.297 13.4336C107.74 16.2428 105.174 19.0433 102.602 21.8348C102.457 21.9844 102.256 22.0721 102.044 22.079H99.5436C99.481 22.0846 99.4181 22.071 99.3638 22.0401C99.3095 22.0093 99.2665 21.9626 99.2408 21.9069C99.2151 21.8511 99.208 21.7889 99.2205 21.729C99.233 21.6691 99.2644 21.6145 99.3104 21.5729L108.554 11.4931C108.568 11.4773 108.575 11.4578 108.575 11.4376C108.575 11.4174 108.568 11.3978 108.554 11.3821C105.461 8.00442 102.364 4.62822 99.2648 1.25351C99.2187 1.21183 99.1873 1.15723 99.1747 1.09733C99.1623 1.03743 99.1694 0.975243 99.1951 0.91946C99.2208 0.863677 99.2638 0.817093 99.3181 0.786225C99.3724 0.755357 99.4353 0.74175 99.498 0.747309H102.003ZM80.2822 3.43376H74.4713C73.7557 3.38849 73.0383 3.48741 72.364 3.7243C71.6898 3.96118 71.0732 4.33092 70.5531 4.81028C70.0569 5.31362 69.6744 5.91217 69.4303 6.5675C69.1863 7.22285 69.0859 7.9205 69.1358 8.61571V14.2595C69.0892 14.9544 69.191 15.6511 69.4349 16.306C69.6788 16.961 70.0596 17.5597 70.5531 18.0648C71.0714 18.5469 71.6876 18.9183 72.3624 19.1554C73.0371 19.3924 73.7554 19.4899 74.4713 19.4414H80.2822C80.9977 19.4867 81.7151 19.3877 82.3893 19.1509C83.0636 18.914 83.6802 18.5442 84.2003 18.0648C84.6966 17.5615 85.079 16.9631 85.323 16.3076C85.5671 15.6523 85.6674 14.9547 85.6176 14.2595C85.6405 12.4034 85.6405 10.4718 85.6176 8.61571C85.6642 7.92078 85.5624 7.22399 85.3185 6.56913C85.0746 5.91426 84.6939 5.31544 84.2003 4.81028C83.6821 4.3283 83.0658 3.95686 82.3911 3.71982C81.7163 3.48277 80.9979 3.38532 80.2822 3.43376ZM47.2912 3.4382H41.4848C40.7698 3.38491 40.0513 3.47792 39.3755 3.71121C38.6999 3.94449 38.0821 4.31286 37.5622 4.79253C37.0674 5.29667 36.6862 5.89545 36.443 6.55066C36.1997 7.20587 36.0997 7.90313 36.1494 8.59796V14.2417C36.1019 14.9363 36.2029 15.6331 36.4461 16.288C36.6891 16.9428 37.0691 17.5418 37.5622 18.0472C38.0812 18.5292 38.6984 18.9007 39.3738 19.1377C40.0493 19.3748 40.7684 19.4722 41.4848 19.4236H47.2911C48.0065 19.4757 48.725 19.3817 49.4006 19.1477C50.0763 18.9137 50.6939 18.5448 51.2139 18.0648C51.7096 17.5613 52.0914 16.9627 52.3347 16.3072C52.5779 15.6519 52.6774 14.9544 52.6266 14.2595C52.6494 12.4034 52.6494 10.4718 52.6266 8.62016C52.6753 7.92542 52.5748 7.22845 52.3316 6.5734C52.0884 5.91834 51.7078 5.31948 51.2139 4.81473C50.6947 4.33265 50.0777 3.9612 49.4022 3.72416C48.7267 3.48712 48.0077 3.38972 47.2911 3.4382H47.2912Z" fill="white"/>
</svg>
