<?xml version="1.0" encoding="UTF-8"?><svg id="Layer_1" xmlns="http://www.w3.org/2000/svg" viewBox="0 0 30 30"><defs><style>.cls-1{fill:#fff;}</style></defs><path class="cls-1" d="m15,29c-.29,0-.58-.07-.84-.22h0c-2.48-1.39-10.59-6.48-10.59-13.76V6.77c0-.98.62-1.87,1.54-2.22L14.17,1.15c.54-.2,1.13-.2,1.66,0l9.06,3.4c.92.35,1.54,1.24,1.54,2.22v8.25c0,7.29-8.1,12.38-10.59,13.76-.26.15-.55.22-.84.22Zm-.23-1.33c.15.08.31.08.46,0,2.33-1.3,9.94-6.06,9.94-12.66V6.77c0-.46-.29-.87-.72-1.04l-9.06-3.4c-.25-.09-.52-.09-.78,0l-9.06,3.4c-.43.16-.72.58-.72,1.03v8.25c0,6.6,7.61,11.36,9.94,12.66Z"/><path class="cls-1" d="m14.26,18.79c-.13,0-.27-.04-.38-.13l-3.81-2.89c-.28-.21-.33-.61-.12-.89.21-.28.61-.33.89-.12l3.31,2.5,4.91-6.49c.21-.28.61-.33.89-.12.28.21.33.61.12.89l-5.29,6.99c-.12.16-.31.25-.5.25Z"/></svg>