<svg width="40" height="40" viewBox="0 0 40 40" fill="none" xmlns="http://www.w3.org/2000/svg">
<path fill-rule="evenodd" clip-rule="evenodd" d="M20 9.15527e-05C20.5523 9.15527e-05 21 0.447805 21 1.00009V3.00008C21 3.55236 20.5523 4.00007 20 4.00007C19.4477 4.00007 19 3.55236 19 3.00008V1.00009C19 0.447805 19.4477 9.15527e-05 20 9.15527e-05ZM6.56502 5.56504C6.95554 5.17451 7.5887 5.17451 7.97923 5.56504L9.39343 6.97924C9.78396 7.36977 9.78396 8.00293 9.39343 8.39345C9.00291 8.78397 8.36975 8.78397 7.97923 8.39345L6.56502 6.97924C6.1745 6.58872 6.1745 5.95556 6.56502 5.56504ZM33.435 5.56504C33.8255 5.95556 33.8255 6.58872 33.435 6.97924L32.0207 8.39345C31.6302 8.78397 30.9971 8.78397 30.6065 8.39345C30.216 8.00293 30.216 7.36977 30.6065 6.97924L32.0207 5.56504C32.4113 5.17451 33.0444 5.17451 33.435 5.56504ZM13.6361 12.6361C10.1214 16.1508 10.1214 21.8493 13.6361 25.364L14.7302 26.4582C15.1958 26.9237 15.596 27.4424 15.9249 28H24.075C24.404 27.4424 24.8042 26.9237 25.2697 26.4582L26.3639 25.364C29.8786 21.8493 29.8786 16.1508 26.3639 12.6361C22.8492 9.12141 17.1508 9.12141 13.6361 12.6361ZM25.5821 29.4169C25.8587 28.8498 26.2293 28.327 26.6839 27.8724L27.7781 26.7782C32.0739 22.4824 32.0739 15.5177 27.7781 11.2219C23.4824 6.92616 16.5176 6.92616 12.2218 11.2219C7.9261 15.5177 7.9261 22.4824 12.2218 26.7782L13.316 27.8724C13.7706 28.327 14.1412 28.8499 14.4179 29.4169C14.4234 29.4289 14.4291 29.4407 14.4351 29.4524C14.8035 30.221 15 31.0693 15 31.9378V32.9999C15 35.7613 17.2386 37.9999 20 37.9999C22.7614 37.9999 25 35.7613 25 32.9999V31.9378C25 31.0693 25.1965 30.221 25.5649 29.4525C25.5709 29.4408 25.5766 29.4289 25.5821 29.4169ZM23.2462 30H16.7538C16.916 30.6277 17 31.2784 17 31.9378V32.9999C17 34.6568 18.3431 35.9999 20 35.9999C21.6568 35.9999 23 34.6568 23 32.9999V31.9378C23 31.2784 23.084 30.6277 23.2462 30ZM1.00018 18.9999C1.00018 18.4476 1.4479 17.9999 2.00018 17.9999H4.00017C4.55245 17.9999 5.00016 18.4476 5.00016 18.9999C5.00016 19.5522 4.55245 19.9999 4.00017 19.9999H2.00018C1.4479 19.9999 1.00018 19.5522 1.00018 18.9999ZM35 18.9999C35 18.4476 35.4477 17.9999 36 17.9999H38C38.5523 17.9999 39 18.4476 39 18.9999C39 19.5522 38.5523 19.9999 38 19.9999H36C35.4477 19.9999 35 19.5522 35 18.9999Z" fill="white"/>
</svg>
