<?xml version="1.0" encoding="UTF-8"?>
<svg width="1200pt" height="1200pt" version="1.1" viewBox="0 0 1200 1200" xmlns="http://www.w3.org/2000/svg">
 <g fill="#6ba3c9">
  <path d="m566.83 720.19c0.79297-1.5352 1.4141-3.1914 1.8711-4.8945 1.7773-6.5039 0.88672-13.273-2.4961-19.105l-23.016-39.816c-4.2734-7.3672-12-12.07-20.449-12.527-0.097657-1.7031-0.38281-3.4336-0.79297-5.1367-1.7266-6.5039-5.9023-11.953-11.711-15.312l-39.84-22.992c-7.3203-4.2227-16.727-4.3203-24-0.60156-4.4648-6.8867-12.238-11.473-21.047-11.473h-45.984c-8.8086 0-16.586 4.5586-21.047 11.473-7.2734-3.6953-16.633-3.625-24 0.60156l-39.793 22.992c-5.8086 3.3594-9.9844 8.7617-11.711 15.266-0.48047 1.7031-0.74219 3.457-0.83984 5.207-8.4492 0.45703-16.176 5.1602-20.449 12.527l-23.016 39.816c-3.3359 5.832-4.2227 12.602-2.4961 19.105 0.48047 1.7031 1.0781 3.3594 1.8711 4.8945-6.8867 4.5117-11.449 12.266-11.449 21.07v45.961c0 8.8086 4.5352 16.586 11.449 21.098-0.79297 1.5352-1.4141 3.168-1.8711 4.8945-1.7266 6.4805-0.83984 13.273 2.4961 19.078l23.016 39.816c4.2734 7.3672 12 12.07 20.449 12.527 0.097657 1.7266 0.38281 3.457 0.83984 5.1602 1.7266 6.5039 5.8555 11.93 11.711 15.289l39.793 22.992c7.3203 4.2227 16.727 4.3438 24 0.625 4.5117 6.8867 12.238 11.449 21.047 11.449h45.984c6.7422 0 13.078-2.6172 17.809-7.3906 1.2734-1.2461 2.3516-2.6172 3.2891-4.0547 7.3203 3.7188 16.68 3.6016 23.953-0.625l39.793-22.992c5.8555-3.3594 10.031-8.8086 11.762-15.336 0.48047-1.6797 0.74219-3.4062 0.83984-5.1133 8.3984-0.45703 16.129-5.1602 20.398-12.527l23.016-39.816c3.3828-5.832 4.2734-12.648 2.4961-19.152-0.48047-1.7031-1.0781-3.3359-1.8711-4.8477 6.8867-4.5117 11.449-12.266 11.449-21.07v-45.961c-0.003906-8.832-4.5664-16.609-11.453-21.098zm-12.551 67.031c0 0.625-0.50391 1.1523-1.1289 1.1523h-15.984c-5.4492 0-10.176 3.625-11.566 8.8789-1.3906 5.2578 0.88672 10.777 5.5664 13.512l13.871 8.0156 0.38281 1.5117-22.969 39.816 10.414 6-11.953-5.5664-13.824-7.9922c-4.6797-2.7344-10.68-1.9453-14.496 1.8945-3.8398 3.8398-4.6328 9.7695-1.9219 14.496l8.0156 13.848c0 0.023438-0.48047 1.5117-0.43359 1.5117l-39.84 22.992-1.5352-0.43359-7.9688-13.824c-2.7109-4.7031-8.2578-7.0078-13.512-5.5938-5.2578 1.4141-8.9023 6.168-8.9023 11.594l-0.28906 16.777c-0.23828 0.21484-0.50391 0.33594-0.83984 0.33594h-45.984c-0.60156 0-1.1289-0.50391-1.1289-1.1289l0.011719-15.98c0-5.4258-3.6016-10.176-8.8555-11.594-1.0312-0.26562-2.1133-0.40625-3.1445-0.40625-4.1758 0-8.207 2.2305-10.367 6l-8.0156 13.848-1.5352 0.40625-39.793-22.992-6 10.414 5.5664-11.953 7.9688-13.848c2.7109-4.7031 1.9688-10.633-1.8711-14.496s-9.793-4.6328-14.496-1.9219l-13.871 7.9922c-0.046874 0-1.5117-0.43359-1.5352-0.43359l-22.969-39.816 0.43359-1.5352 13.824-7.9922c4.7266-2.7109 6.9844-8.2578 5.5664-13.512-1.4141-5.2578-6.1445-8.9023-11.566-8.9023h-15.984c-0.60156 0-1.1289-0.50391-1.1289-1.1523v-45.961c0-0.625 0.48047-1.1289 1.1289-1.1289h15.984c5.4492 0 10.176-3.625 11.566-8.8789 1.3906-5.2578-0.83984-10.777-5.5664-13.512l-13.824-8.0156-0.43359-1.5352 22.969-39.816-10.414-6 11.953 5.5938 13.871 7.9922c4.6797 2.7109 10.633 1.9453 14.496-1.8945 3.8398-3.8398 4.5859-9.793 1.8711-14.496l-7.9688-13.871c-0.28906-0.45703-0.046875-1.2734 0.43359-1.5352l39.793-22.992-6-10.391 7.5352 10.824 7.9688 13.871c2.7109 4.7031 8.3047 6.9844 13.512 5.5938 5.2578-1.4141 8.9023-6.168 8.9023-11.594v-16.008c0-0.625 0.50391-1.1289 1.1289-1.1289h45.984c0.60156 0 1.1289 0.50391 1.1289 1.1289v16.008c0 5.4492 3.6484 10.199 8.9023 11.594 5.2578 1.3906 10.777-0.88672 13.512-5.5938l8.0156-13.871s1.5117-0.38281 1.5117-0.40625l39.84 22.992 0.38281 1.5586-7.9688 13.824c-2.7109 4.6797-1.9688 10.633 1.8711 14.496 3.8398 3.8164 9.793 4.6094 14.496 1.8945l13.871-7.9922s1.5117 0.43359 1.5352 0.40625l22.969 39.816-0.43359 1.5586-13.824 7.9688c-4.6797 2.7109-6.9844 8.2578-5.5664 13.512 1.4141 5.2578 6.1445 8.9023 11.566 8.9023h16.078c0.55078 0 1.0312 0.50391 1.0312 1.1289l0.003907 46.035z"/>
  <path d="m402.36 679.08c-46.922 0-85.129 38.207-85.129 85.152 0 46.945 38.207 85.152 85.129 85.152 46.969 0 85.223-38.207 85.223-85.152 0.003907-46.941-38.254-85.152-85.223-85.152zm0 146.33c-33.695 0-61.129-27.434-61.129-61.152s27.434-61.152 61.129-61.152c33.742 0 61.223 27.434 61.223 61.152 0.003907 33.723-27.477 61.152-61.223 61.152z"/>
  <path d="m910.49 696.1v-130.73c0-27.047 0-64.078-67.078-64.078h-11.617v-92.113c0-6.625-5.3516-12-12-12h-21v-83.23c0-3.4062-1.4648-6.625-3.9375-8.9023l-46.68-42.098c-4.9219-4.4414-12.504-4.0312-16.969 0.88672-4.4141 4.9219-4.0312 12.504 0.88672 16.945l42.695 38.52v77.902h-21c-6.6016 0-12 5.375-12 12v92.113h-103.68l-74.062-181.78c-6.0469-14.832-23.305-26.449-39.336-26.449h-163.82c-17.902 0-32.496 14.566-32.496 32.496v223.18c-43.727 15.07-82.68 43.223-110.52 81.48-3.8867 5.3516-2.7109 12.863 2.6641 16.777 5.3516 3.8867 12.84 2.7109 16.727-2.6406 38.352-52.656 100.08-84.121 165.1-84.121 101.66 0 188.62 75.84 202.22 176.43 0.79297 5.9531 5.9023 10.391 11.902 10.391h129.5c-11.305 19.078-17.902 41.258-17.902 64.992 0 70.656 57.504 128.14 128.16 128.14s128.16-57.48 128.16-128.14c0-51.289-30.336-95.5-73.918-115.97zm-144.72-274.92h42v80.113h-42zm-413.38-95.617c0-4.6797 3.793-8.4961 8.4961-8.4961h163.82c6.3828 0 14.664 5.5664 17.113 11.496l70.367 172.7-259.8 0.003906zm274.3 397.46c-19.586-107.21-114.24-186.82-224.35-186.82-16.969 0-33.695 1.9922-49.969 5.6641v-16.609h491.02c43.078 0 43.078 13.391 43.078 40.078v122.28c-9.6953-2.375-19.777-3.7695-30.238-3.7695-36.098 0-68.664 15.047-92.016 39.145l-137.52 0.003906zm229.56 193.13c-57.434 0-104.16-46.703-104.16-104.14s46.727-104.14 104.16-104.14 104.16 46.727 104.16 104.14-46.75 104.14-104.16 104.14z"/>
  <path d="m856.25 745.63c-36.602 0-66.383 29.785-66.383 66.406 0 36.625 29.762 66.383 66.383 66.383 36.625 0 66.434-29.785 66.434-66.383 0-36.598-29.832-66.406-66.434-66.406zm0 108.79c-23.398 0-42.383-19.008-42.383-42.383 0-23.398 18.984-42.406 42.383-42.406 23.398 0 42.434 19.008 42.434 42.406-0.023438 23.348-19.055 42.383-42.434 42.383z"/>
  <path d="m707.14 581.35h112.63c6.6484 0 12-5.375 12-12s-5.3516-12-12-12h-112.63c-6.6016 0-12 5.375-12 12s5.375 12 12 12z"/>
  <path d="m707.14 620.59h112.63c6.6484 0 12-5.375 12-12s-5.3516-12-12-12h-112.63c-6.6016 0-12 5.375-12 12 0 6.6211 5.375 12 12 12z"/>
  <path d="m831.77 647.88c0-6.625-5.3516-12-12-12h-112.63c-6.6016 0-12 5.375-12 12s5.3984 12 12 12h112.63c6.6719 0 12-5.375 12-12z"/>
 </g>
</svg>
