<?xml version="1.0" encoding="UTF-8"?>
<svg width="1200pt" height="1200pt" version="1.1" viewBox="0 0 1200 1200" xmlns="http://www.w3.org/2000/svg">
 <g fill="#6ba3c9">
  <path d="m749.05 770.29h40.242v24.984h-40.242z"/>
  <path d="m802.26 827.55h40.242v24.984h-40.242z"/>
  <path d="m412.82 770.29h40.25v24.984h-40.25z"/>
  <path d="m349.53 827.55h40.25v24.984h-40.25z"/>
  <path d="m952.93 221.27c-2.5586-1.6914-63.848-41.426-157.53-41.426-16.039 0-32.273 1.1992-48.281 3.5469-74.891 11.02-123.51 72.859-142.38 122.47-1.8242 4.7734-3.3984 9.4844-4.7305 14.102-1.3398-4.6133-2.9141-9.3125-4.7227-14.082-18.879-49.613-67.496-111.47-142.41-122.49-16.008-2.3477-32.25-3.5469-48.281-3.5469-93.672 0-154.96 39.734-157.53 41.426-5.2148 3.4414-7.0859 10.211-4.3711 15.84 0.53125 1.1172 4.2969 8.7852 11.262 20.305v3.4297c0.72266 0 1.4062 0.042969 2.125 0.042969 20.996 33.848 66.645 95.32 137.59 128.5 40.652 19.023 87.09 29.934 127.43 29.934 20.445 0 46.582-3.0156 63.938-15.684v262.04h-249.36v24.984h249.35v46.406l-119.46 113.79v42.824l-55.152 55.152v71.316h24.984v-60.965l30.164-30.164v65.637h24.984v-133.08l94.48-90v159.61l-41.125 41.125v47.848h24.984v-37.504l41.125-41.125v-31.906l27.633 27.633v82.387h24.984v-92.73l-52.621-52.621 0.007813-103.85 95.66 91.121v133.08h24.984v-65.637l29.801 29.793v60.832h24.984v-71.176l-54.785-54.777v-42.824l-120.64-114.92v-45.281h251.73v-24.984h-251.73v-266.3c16.965 16.23 46.34 19.945 68.887 19.945h0.015625c40.328 0 86.766-10.91 127.42-29.934 99.145-46.355 148.89-147.97 150.95-152.27 2.7148-5.6367 0.84375-12.41-4.3711-15.848zm-431.84 173.07c-36.262 0-79.938-10.312-116.83-27.574-55.691-26.043-95.113-72.5-117.44-104.84 161.17 9.7539 247.02 89.289 277.66 124.95-10.066 4.7461-25.207 7.4688-43.391 7.4688zm58.719-28.344c-37.387-42.516-132.12-124.65-308.41-129.81 20.34-10.527 68.742-31.355 133.2-31.355 14.816 0 29.84 1.1094 44.641 3.2891 64.203 9.4453 106.22 63.348 122.69 106.65 7.4258 19.512 10.035 38.012 7.8867 51.227zm20.672 22.055h-1.7305c0.49219-0.93359 0.81641-2.0156 1.25-3 0.33203 0.75781 0.58984 1.5742 0.95703 2.2969-0.14453 0.21875-0.35156 0.49609-0.47656 0.70312zm195.27-21.289c-36.91 17.266-80.586 27.574-116.84 27.574-19.23-0.007812-35.172-3.0078-45.191-8.2695 31.23-36.246 117.47-115.33 279.62-124.29-22.262 32.309-61.664 78.82-117.59 104.98zm-175.91-3.0703c-1.5-13.035 1.2344-30.551 8.2305-48.938 16.48-43.285 58.492-97.195 122.68-106.63 14.801-2.1836 29.816-3.2891 44.633-3.2891 64.395 0 112.74 20.781 133.12 31.316-174.55 4.4336-269.74 84.23-308.67 127.54z"/>
 </g>
</svg>
