<svg width="30" height="24" viewBox="0 0 30 24" fill="none" xmlns="http://www.w3.org/2000/svg">
<g clip-path="url(#clip0_272_1064)">
<path d="M14.9999 16.517C14.291 16.517 13.5983 16.8149 13.0988 17.3278C12.5994 17.8408 12.3094 18.5357 12.3094 19.2804C12.3094 20.025 12.5833 20.7034 13.0988 21.2329C13.5983 21.7458 14.2749 22.0437 14.9999 22.0437C15.7249 22.0437 16.3855 21.7624 16.901 21.2329C17.4166 20.7034 17.6905 20.025 17.6905 19.2804C17.6905 18.5357 17.4166 17.8573 16.901 17.3278C16.4016 16.8149 15.7088 16.517 14.9999 16.517ZM14.9999 23.4998C13.9044 23.4998 12.8572 23.053 12.0838 22.2588C11.3105 21.4645 10.8755 20.4055 10.8755 19.2638C10.8755 18.1221 11.3105 17.0631 12.0838 16.2688C12.8572 15.4746 13.8883 15.0278 14.9999 15.0278C16.1116 15.0278 17.1266 15.4746 17.916 16.2688C18.6894 17.0631 19.1244 18.1221 19.1244 19.2638C19.1244 20.4055 18.6894 21.448 17.916 22.2588C17.1427 23.053 16.1116 23.4998 14.9999 23.4998Z" fill="white"/>
<path d="M24.4894 12.9598C24.3283 12.9598 24.1511 12.8937 24.0222 12.7944H24.0061C21.525 10.5109 18.3189 9.25337 14.9839 9.25337C11.6489 9.25337 8.45889 10.5109 5.96167 12.7778C5.83278 12.8937 5.65556 12.9598 5.47834 12.9598C5.26889 12.9598 5.07556 12.8771 4.93056 12.7116C4.67278 12.4138 4.68889 11.9339 4.995 11.6692C7.75 9.15409 11.2783 7.76416 14.9678 7.76416C18.6572 7.76416 22.1856 9.15409 24.9406 11.6692C25.2306 11.9339 25.2628 12.4138 25.005 12.7116C24.86 12.8606 24.6667 12.9598 24.4733 12.9598" fill="white"/>
<path d="M28.7751 6.92014C28.6139 6.92014 28.4367 6.85396 28.3078 6.75468C24.6184 3.67698 19.9623 1.97266 15.2095 1.97266C15.129 1.97266 15.0645 1.97266 14.9839 1.97266C14.9195 1.97266 14.839 1.97266 14.7745 1.97266C10.0701 1.97266 5.46228 3.64389 1.77284 6.67194H1.74062L1.67617 6.75468C1.54728 6.8705 1.38617 6.92014 1.22506 6.92014C1.01562 6.92014 0.806174 6.82086 0.677285 6.6554C0.548396 6.50648 0.500063 6.30791 0.516174 6.10935C0.532285 5.91079 0.628951 5.72878 0.773951 5.61295C4.70506 2.32014 9.69951 0.5 14.7906 0.5H15.2256C20.3167 0.5 25.2951 2.32014 29.2584 5.61295C29.5645 5.8777 29.5967 6.34101 29.3551 6.6554C29.2101 6.82086 29.0167 6.92014 28.8073 6.92014" fill="white"/>
</g>
<defs>
<clipPath id="clip0_272_1064">
<rect width="29" height="23" fill="white" transform="translate(0.5 0.5)"/>
</clipPath>
</defs>
</svg>
