<?xml version="1.0" encoding="UTF-8"?><svg id="Layer_1" xmlns="http://www.w3.org/2000/svg" viewBox="0 0 30 30"><defs><style>.cls-1{fill:#fff;}</style></defs><g><path class="cls-1" d="m15.09,28.43H5.15c-1.78,0-3.23-1.45-3.23-3.23V6.85c0-1.78,1.45-3.23,3.23-3.23h2.62c.34,0,.61.27.61.61s-.27.61-.61.61h-2.62c-1.11,0-2.01.9-2.01,2.01v18.34c0,1.11.9,2.01,2.01,2.01h9.94c.34,0,.61.27.61.61s-.27.61-.61.61Z"/><path class="cls-1" d="m23.49,11.51c-.34,0-.61-.27-.61-.61v-4.04c0-1.11-.9-2.01-2.01-2.01h-2.62c-.34,0-.61-.27-.61-.61s.27-.61.61-.61h2.62c1.78,0,3.23,1.45,3.23,3.23v4.04c0,.34-.27.61-.61.61Z"/><path class="cls-1" d="m16.94,7.47h-7.86c-1.06,0-1.92-.86-1.92-1.92v-2.62c0-1.06.86-1.92,1.92-1.92h7.86c1.06,0,1.92.86,1.92,1.92v2.62c0,1.06-.86,1.92-1.92,1.92Zm-7.86-5.24c-.38,0-.7.31-.7.7v2.62c0,.38.31.7.7.7h7.86c.38,0,.7-.31.7-.7v-2.62c0-.38-.31-.7-.7-.7h-7.86Z"/></g><path class="cls-1" d="m21.46,29c-.2,0-.41-.05-.6-.16h0c-1.41-.79-6.03-3.69-6.03-7.89v-4.59c0-.66.41-1.25,1.03-1.48l5.05-1.89c.36-.13.75-.13,1.11,0l5.05,1.89c.61.23,1.03.82,1.03,1.48v4.59c0,4.2-4.62,7.1-6.03,7.89-.19.1-.39.16-.6.16Zm0-1.23s0,0,0,0c.9-.5,5.4-3.2,5.4-6.82v-4.59c0-.15-.09-.28-.23-.33l-5.05-1.89c-.08-.03-.17-.03-.25,0l-5.05,1.89c-.14.05-.23.18-.23.33v4.59c0,3.62,4.5,6.32,5.4,6.82Z"/><path class="cls-1" d="m21.9,23.3c-.34,0-.61-.27-.61-.61v-4.82c0-.34.27-.61.61-.61s.61.27.61.61v4.82c0,.34-.27.61-.61.61Z"/><path class="cls-1" d="m24.31,20.89h-4.82c-.34,0-.61-.27-.61-.61s.27-.61.61-.61h4.82c.34,0,.61.27.61.61s-.27.61-.61.61Z"/><path class="cls-1" d="m18.63,11.29H7.38c-.34,0-.61-.27-.61-.61s.27-.61.61-.61h11.25c.34,0,.61.27.61.61s-.27.61-.61.61Z"/><path class="cls-1" d="m12.61,15.17h-5.22c-.34,0-.61-.27-.61-.61s.27-.61.61-.61h5.22c.34,0,.61.27.61.61s-.27.61-.61.61Z"/><path class="cls-1" d="m11.2,22.94h-3.82c-.34,0-.61-.27-.61-.61s.27-.61.61-.61h3.82c.34,0,.61.27.61.61s-.27.61-.61.61Z"/><path class="cls-1" d="m11.67,19.05h-4.28c-.34,0-.61-.27-.61-.61s.27-.61.61-.61h4.28c.34,0,.61.27.61.61s-.27.61-.61.61Z"/></svg>