<svg width="36" height="37" viewBox="0 0 36 37" fill="none" xmlns="http://www.w3.org/2000/svg">
<path d="M9.66667 35.1666H4.66667C3.78261 35.1666 2.93477 34.8154 2.30965 34.1903C1.68453 33.5652 1.33334 32.7173 1.33334 31.8333V20.1666C1.33334 19.2825 1.68453 18.4347 2.30965 17.8096C2.93477 17.1844 3.78261 16.8333 4.66667 16.8333H9.66667M21.3333 13.4999V6.83325C21.3333 5.50717 20.8066 4.2354 19.8689 3.29772C18.9312 2.36004 17.6594 1.83325 16.3333 1.83325L9.66667 16.8333V35.1666H28.4667C29.2705 35.1757 30.0506 34.8939 30.6632 34.3733C31.2757 33.8526 31.6795 33.1281 31.8 32.3332L34.1 17.3333C34.1725 16.8555 34.1403 16.3677 34.0056 15.9037C33.8708 15.4396 33.6368 15.0104 33.3198 14.6458C33.0027 14.2811 32.6101 13.9898 32.1693 13.7919C31.7284 13.5941 31.2498 13.4944 30.7667 13.4999H21.3333Z" stroke="white" stroke-width="2.5" stroke-linecap="round" stroke-linejoin="round"/>
</svg>
