<svg width="159" height="31" viewBox="0 0 159 31" fill="none" xmlns="http://www.w3.org/2000/svg">
<g clip-path="url(#clip0_250_421)">
<path d="M61.9403 14.0215C60.7328 13.2477 59.4097 12.753 58.0352 12.3598C56.4167 11.9031 54.7596 11.5606 53.1539 11.0659C52.2419 10.7869 51.3555 10.3556 50.5077 9.88622C49.8783 9.53104 49.6342 8.90947 49.6342 8.17374C49.6342 7.04478 50.1737 6.20757 51.0729 5.64943C51.7537 5.23082 52.5373 4.9137 53.3209 4.74879C55.3377 4.33019 57.2774 4.57121 58.9087 5.91581C59.3327 6.25831 59.7052 6.6896 60.0777 7.12089C60.2447 7.31116 60.7842 8.03421 60.7842 8.03421L62.878 6.6008C62.7881 6.38516 62.4541 5.89044 62.4541 5.89044H62.4284C61.2081 4.05112 59.4611 2.90947 57.2902 2.35133C55.5689 1.92004 53.8347 1.97078 52.1263 2.38939C50.0709 2.8841 48.2597 3.79742 47.322 5.80165C46.5255 7.48875 46.4485 9.21391 47.5018 10.8503C48.2083 11.9412 49.3259 12.5754 50.5334 12.956C52.4089 13.5649 54.31 14.0596 56.2112 14.5923C57.6113 14.9856 59.0115 15.3534 60.219 16.1907C60.6943 16.5205 61.1439 16.9137 61.2595 17.5099C61.5164 18.7657 61.2595 19.8947 60.2062 20.7319C59.7437 21.0997 59.2299 21.4549 58.6775 21.6706C56.5451 22.5078 54.3485 22.5458 52.1648 21.937C50.7004 21.5184 49.4158 20.7573 48.6579 19.3746C48.3882 18.8926 48.2083 18.3598 48.0927 17.827C48.0285 17.5099 47.9257 16.9264 47.9257 16.9264L45.3438 18.6769C45.4337 18.8926 45.6777 19.5268 45.6777 19.5268C46.3457 21.3154 47.566 22.6727 49.3002 23.5226C52.8585 25.2604 56.5323 25.2858 60.1676 23.8397C62.5055 22.9137 64.0598 21.252 64.2397 18.6135C64.381 16.6346 63.6616 15.0997 61.9532 14.0088L61.9403 14.0215Z" fill="white"/>
<path d="M155.959 4.32952V24.5113H158.824V2.43945L155.959 4.32952Z" fill="white"/>
<path d="M111.139 8.16091C109.842 8.32581 108.801 9.03617 107.838 9.87338C107.658 10.0383 107.465 10.2032 107.131 10.4949C107.106 9.8607 107.067 8.42729 107.067 8.42729H104.524V24.5119H107.067C107.067 24.5119 107.067 15.6451 107.093 14.884C107.183 12.2201 109.148 10.3935 111.627 10.3174C111.923 10.3174 112.86 10.292 113.22 10.3174V8.22433C113.027 8.12285 112.244 8.03406 111.126 8.17359L111.139 8.16091Z" fill="white"/>
<path d="M128.931 8.4288H125.398L118.243 15.4943V2.54297L115.674 4.23007V24.5134H118.243V18.9827L120.414 16.839L126.644 24.5134H129.843L122.187 15.0757L128.931 8.4288Z" fill="white"/>
<path d="M141.482 2.41406L132.246 24.5113H135.368L137.975 18.1054H148.021L150.628 24.5113H153.75L144.514 2.41406H141.482ZM139.003 15.5684L139.17 15.1625L142.908 5.97854L142.998 5.75021L143.075 5.95318L146.993 15.5684H139.003Z" fill="white"/>
<path d="M72.216 8.73268C71.2526 9.18934 70.3662 9.76016 69.634 10.5213C69.5313 10.6354 69.2744 10.8638 69.0945 11.0413C69.0945 10.8638 69.056 8.73268 69.056 8.73268V8.41555H66.5254V30.5001L66.8594 30.2718L68.6321 29.0921L69.0431 28.813V28.4071C69.0431 28.4071 69.056 22.2295 69.056 21.887C69.3643 22.1407 69.5698 22.3564 69.7368 22.4959C70.1607 22.8384 70.5589 23.2316 71.0085 23.5361C73.0638 24.8807 75.2861 25.1724 77.6497 24.4874C79.1784 24.0435 80.5143 23.2697 81.4392 21.9885C83.5073 19.109 83.6358 15.9885 82.4668 12.7665C80.8868 8.40287 75.5045 7.19779 72.1903 8.74536L72.216 8.73268ZM76.3266 22.4959C76.3266 22.4959 69.4799 24.0308 69.0817 16.4705C68.9661 14.3902 70.1479 10.4578 74.7594 10.2802C74.7594 10.2802 79.2683 10.0646 80.4372 14.517C80.4372 14.517 81.9402 21.1259 76.3266 22.4959Z" fill="white"/>
<path d="M98.8836 10.9518C98.5753 10.6728 98.4597 10.5459 98.3055 10.3937C96.1346 8.30066 93.5141 7.64105 90.5853 8.4402C88.7355 8.9476 87.3353 10.0892 86.4105 11.5227C86.4105 11.5227 86.0251 11.9793 85.6654 12.9561C85.6526 12.9941 85.6397 13.0322 85.6269 13.0702C85.5498 13.2859 85.4856 13.5269 85.4085 13.8059C85.37 13.9328 85.3314 14.0723 85.3057 14.1992C85.1644 14.8461 85.0745 15.6199 85.0488 16.5332C85.0488 17.1802 85.1002 17.7637 85.1773 18.2838C85.1773 18.3218 85.1773 18.3599 85.1901 18.3979C85.2158 18.5375 85.2415 18.6643 85.2672 18.7912C85.3057 18.9434 85.3314 19.0956 85.37 19.2351C85.7296 20.5417 86.2563 21.252 86.2563 21.252V21.2267C87.6308 23.51 89.8146 24.6516 92.5507 24.8292C94.7088 24.9687 96.5585 24.1062 98.1128 22.6474C98.3055 22.4698 98.9093 21.9117 98.9221 21.8863V24.4994H101.466V8.42751H98.9221C98.9221 8.42751 98.8836 10.2415 98.8707 10.9518H98.8836ZM98.935 16.4825C98.5367 24.0427 91.8442 22.5079 91.8442 22.5079C86.3462 21.1379 87.8235 14.529 87.8235 14.529C88.9668 10.0766 93.3728 10.2922 93.3728 10.2922C97.8945 10.4698 99.0377 14.3895 98.935 16.4825Z" fill="white"/>
<path d="M4.93273 0.5C7.656 0.5 9.86545 2.68182 9.86545 5.37104V17.9038C9.86545 20.593 7.656 22.7748 4.93273 22.7748C2.20945 22.7748 0 20.593 0 17.9038V5.37104C0 2.68182 2.20945 0.5 4.93273 0.5Z" fill="white"/>
<path d="M17.6241 7.23633C20.3474 7.23633 22.5569 9.41815 22.5569 12.1074V24.6401C22.5569 27.3294 20.3474 29.5112 17.6241 29.5112C14.9009 29.5112 12.6914 27.3294 12.6914 24.6401V12.1074C12.6914 9.41815 14.9009 7.23633 17.6241 7.23633Z" fill="white"/>
<path d="M30.3155 1.01953C33.0388 1.01953 35.2483 3.20135 35.2483 5.89057V23.066C35.2483 25.7553 33.0388 27.9371 30.3155 27.9371C27.5923 27.9371 25.3828 25.7553 25.3828 23.066V5.89057C25.3828 3.20135 27.5923 1.01953 30.3155 1.01953Z" fill="white"/>
</g>
<defs>
<clipPath id="clip0_250_421">
<rect width="158.824" height="30" fill="white" transform="translate(0 0.5)"/>
</clipPath>
</defs>
</svg>
