<svg width="180" height="34" viewBox="0 0 180 34" fill="none" xmlns="http://www.w3.org/2000/svg">
<g clip-path="url(#clip0_1_4438)">
<path d="M70.2001 15.3251C68.8316 14.4482 67.3321 13.8875 65.7743 13.4418C63.94 12.9243 62.0619 12.5361 60.2421 11.9755C59.2085 11.6592 58.204 11.1704 57.2431 10.6385C56.5297 10.2359 56.2531 9.53148 56.2531 8.69766C56.2531 7.41816 56.8646 6.46933 57.8837 5.83677C58.6553 5.36235 59.5433 5.00294 60.4314 4.81605C62.7171 4.34163 64.9154 4.61478 66.7643 6.13867C67.2447 6.52683 67.6669 7.01563 68.0891 7.50442C68.2784 7.72007 68.8898 8.53952 68.8898 8.53952L71.2628 6.91499C71.1609 6.6706 70.7824 6.10992 70.7824 6.10992H70.7533C69.3702 4.02535 67.3903 2.73148 64.9299 2.09892C62.9791 1.61013 61.0137 1.66764 59.0775 2.14205C56.7481 2.70273 54.6954 3.73783 53.6326 6.00928C52.73 7.92134 52.6426 9.87652 53.8364 11.7311C54.6371 12.9674 55.9037 13.6862 57.2722 14.1175C59.3977 14.8076 61.5524 15.3683 63.707 15.9721C65.2939 16.4177 66.8808 16.8347 68.2492 17.7835C68.7879 18.1573 69.2974 18.6029 69.4285 19.2786C69.7196 20.7019 69.4285 21.9814 68.2347 22.9302C67.7106 23.3471 67.1282 23.7497 66.5022 23.9941C64.0855 24.9429 61.5961 24.986 59.1211 24.296C57.4615 23.8215 56.0056 22.959 55.1467 21.3919C54.841 20.8456 54.6371 20.2418 54.5061 19.638C54.4333 19.2786 54.3169 18.6173 54.3169 18.6173L51.3906 20.6013C51.4925 20.8456 51.7691 21.5645 51.7691 21.5645C52.5262 23.5915 53.9092 25.1298 55.8746 26.093C59.9073 28.0626 64.071 28.0913 68.191 26.4524C70.8406 25.4029 72.6022 23.5196 72.806 20.5294C72.9662 18.2867 72.1509 16.5471 70.2146 15.3108L70.2001 15.3251Z" fill="black"/>
<path d="M176.754 4.34129V27.214H180V2.19922L176.754 4.34129Z" fill="black"/>
<path d="M125.959 8.68323C124.488 8.87012 123.309 9.67519 122.217 10.624C122.013 10.8109 121.795 10.9978 121.417 11.3285C121.387 10.6097 121.344 8.98513 121.344 8.98513H118.461V27.2143H121.344C121.344 27.2143 121.344 17.1653 121.373 16.3027C121.475 13.2836 123.702 11.2135 126.512 11.1272C126.847 11.1272 127.91 11.0984 128.317 11.1272V8.75511C128.099 8.6401 127.211 8.53946 125.944 8.6976L125.959 8.68323Z" fill="black"/>
<path d="M146.122 8.98507H142.119L134.01 16.9927V2.31445L131.098 4.2265V27.2142H134.01V20.9462L136.47 18.5166L143.531 27.2142H147.156L138.479 16.5183L146.122 8.98507Z" fill="black"/>
<path d="M160.346 2.1709L149.879 27.2145H153.417L156.372 19.9544H167.757L170.712 27.2145H174.25L163.782 2.1709H160.346ZM157.537 17.0791L157.726 16.6191L161.962 6.21065L162.064 5.95187L162.152 6.18189L166.592 17.0791H157.537V17.0791Z" fill="black"/>
<path d="M81.8459 9.3305C80.754 9.84804 79.7494 10.495 78.9196 11.3576C78.8031 11.4869 78.512 11.7457 78.3082 11.947C78.3082 11.7457 78.2645 9.3305 78.2645 9.3305V8.97109H75.3965V34.0003L75.775 33.7415L77.7841 32.4045L78.2499 32.0882V31.6282C78.2499 31.6282 78.2645 24.6269 78.2645 24.2387C78.6139 24.5263 78.8468 24.7707 79.0361 24.9288C79.5165 25.317 79.9678 25.7626 80.4774 26.1077C82.8067 27.6316 85.3253 27.9622 88.0041 27.1859C89.7365 26.6827 91.2506 25.8058 92.2988 24.3538C94.6427 21.0903 94.7883 17.5538 93.4635 13.9022C91.6728 8.95671 85.5728 7.59096 81.8167 9.34487L81.8459 9.3305ZM86.5045 24.9288C86.5045 24.9288 78.7449 26.6683 78.2936 18.1001C78.1626 15.7423 79.502 11.2857 84.7284 11.0844C84.7284 11.0844 89.8384 10.84 91.1632 15.8861C91.1632 15.8861 92.8666 23.3762 86.5045 24.9288Z" fill="black"/>
<path d="M112.07 11.8462C111.721 11.5299 111.59 11.3861 111.415 11.2136C108.955 8.84153 105.985 8.09397 102.665 8.99967C100.569 9.57473 98.982 10.8686 97.9338 12.4931C97.9338 12.4931 97.4971 13.0107 97.0894 14.1176C97.0749 14.1608 97.0603 14.2039 97.0458 14.247C96.9584 14.4914 96.8856 14.7646 96.7983 15.0809C96.7546 15.2246 96.7109 15.3828 96.6818 15.5265C96.5217 16.2597 96.4197 17.1367 96.3906 18.1718C96.3906 18.905 96.4489 19.5663 96.5362 20.1557C96.5362 20.1988 96.5362 20.242 96.5508 20.2851C96.5799 20.4432 96.609 20.587 96.6381 20.7308C96.6818 20.9033 96.7109 21.0758 96.7546 21.2339C97.1622 22.7147 97.7591 23.5198 97.7591 23.5198V23.491C99.3169 26.0787 101.792 27.3726 104.893 27.5739C107.339 27.732 109.435 26.7544 111.197 25.1012C111.415 24.8999 112.099 24.2673 112.114 24.2386V27.2001H114.996V8.9853H112.114C112.114 8.9853 112.07 11.0411 112.055 11.8462H112.07ZM112.128 18.1143C111.677 26.6826 104.092 24.943 104.092 24.943C97.861 23.3904 99.5352 15.9003 99.5352 15.9003C100.831 10.8542 105.824 11.0986 105.824 11.0986C110.949 11.2999 112.245 15.7422 112.128 18.1143V18.1143Z" fill="black"/>
<path d="M5.59042 0C8.6768 0 11.1808 2.47273 11.1808 5.52051V19.7243C11.1808 22.7721 8.6768 25.2448 5.59042 25.2448C2.50404 25.2448 0 22.7721 0 19.7243V5.52051C0 2.47273 2.50404 0 5.59042 0Z" fill="url(#paint0_linear_1_4438)"/>
<path d="M19.9732 7.63379C23.0596 7.63379 25.5637 10.1065 25.5637 13.1543V27.3581C25.5637 30.4059 23.0596 32.8786 19.9732 32.8786C16.8869 32.8786 14.3828 30.4059 14.3828 27.3581V13.1543C14.3828 10.1065 16.8869 7.63379 19.9732 7.63379V7.63379Z" fill="url(#paint1_linear_1_4438)"/>
<path d="M34.3578 0.589355C37.4442 0.589355 39.9482 3.06208 39.9482 6.10986V25.5754C39.9482 28.6232 37.4442 31.0959 34.3578 31.0959C31.2714 31.0959 28.7674 28.6232 28.7674 25.5754V6.10986C28.7674 3.06208 31.2714 0.589355 34.3578 0.589355V0.589355Z" fill="url(#paint2_linear_1_4438)"/>
</g>
<defs>
<linearGradient id="paint0_linear_1_4438" x1="13.4811" y1="-5.83679" x2="-0.512456" y2="27.7574" gradientUnits="userSpaceOnUse">
<stop stop-color="#4C519E"/>
<stop offset="1" stop-color="#EA4A91"/>
</linearGradient>
<linearGradient id="paint1_linear_1_4438" x1="27.8639" y1="1.78263" x2="13.8704" y2="35.3768" gradientUnits="userSpaceOnUse">
<stop stop-color="#4C519E"/>
<stop offset="1" stop-color="#5EB6E7"/>
</linearGradient>
<linearGradient id="paint2_linear_1_4438" x1="40.6325" y1="2.64517" x2="26.4432" y2="33.246" gradientUnits="userSpaceOnUse">
<stop stop-color="#EE724B"/>
<stop offset="1" stop-color="#FBBF47"/>
</linearGradient>
<clipPath id="clip0_1_4438">
<rect width="180" height="34" fill="white"/>
</clipPath>
</defs>
</svg>
